<?xml version="1.0" encoding="UTF-8" standalone="no"?>
<!-- Uploaded to: SVG Repo, www.svgrepo.com, Generator: SVG Repo Mixer Tools -->
<svg width="800px" height="800px" viewBox="-20 0 296 296" version="1.1" xmlns="http://www.w3.org/2000/svg" xmlns:xlink="http://www.w3.org/1999/xlink" preserveAspectRatio="xMidYMid">
	<g>
		<path d="M219.013,94.362 L219.013,200.956 L128.437,254.544 L127.618,255.289 L127.618,295.128 L128.437,295.9 L256,222.216 L256,73.684 L254.795,73.389 L218.832,93.495 L219.013,94.362" fill="#fff">

</path>
		<path d="M37.57,201.829 L128.437,254.544 L128.437,295.9 L0,221.925 L0,73.975 L1.318,73.776 L37.177,94.624 L37.57,95.818 L37.57,201.829" fill="#fff">

</path>
		<path d="M37.57,95.818 L0,73.975 L128.146,0 L256,73.684 L219.013,94.362 L128.146,42.521 L37.57,95.818" fill="#fff">

</path>
		<path d="M126.878,189.638 L125.894,188.634 L125.894,148.608 L126.878,148.1 L127.117,147.113 L161.432,127.096 L162.482,127.331 L162.482,168.573 L126.878,189.638" fill="#fff">

</path>
		<path d="M46.373,195.968 L46.373,153.144 L47.367,153.095 L82.273,173.41 L82.57,174.21 L82.57,215.748 L46.373,195.968" fill="#fff">

</path>
		<path d="M174.35,216.737 L173.366,215.733 L173.366,175.706 L174.35,175.199 L174.589,174.212 L208.904,154.195 L209.954,154.43 L209.954,195.671 L174.35,216.737" fill="#fff">

</path>
		<path d="M130.042,242.847 L129.059,241.843 L129.059,201.816 L130.042,201.309 L130.282,200.321 L164.597,180.305 L165.646,180.54 L165.646,221.781 L130.042,242.847" fill="#fff">

</path>
		<path d="M93.845,223.067 L93.845,180.243 L94.839,180.194 L129.746,200.508 L130.042,201.309 L130.042,242.847 L93.845,223.067" fill="#fff">

</path>
		<path d="M126.878,132.87 L125.894,131.865 L125.894,91.839 L126.878,91.332 L127.117,90.344 L161.432,70.328 L162.482,70.563 L162.482,111.804 L126.878,132.87" fill="#fff">

</path>
		<path d="M90.68,113.09 L90.68,70.266 L91.675,70.217 L126.581,90.531 L126.878,91.332 L126.878,132.87 L90.68,113.09" fill="#fff">

</path>
		<path d="M46.373,139.199 L46.373,96.376 L47.367,96.327 L82.273,116.641 L82.57,117.441 L82.57,158.979 L46.373,139.199" fill="#fff">

</path>
		<path d="M174.35,159.968 L173.366,158.964 L173.366,118.938 L174.35,118.43 L174.589,117.443 L208.904,97.426 L209.954,97.661 L209.954,138.903 L174.35,159.968" fill="#fff">

</path>
		<path d="M93.845,166.298 L93.845,123.474 L94.839,123.425 L129.746,143.74 L130.042,144.54 L130.042,186.078 L93.845,166.298" fill="#fff">

</path>
	</g>
</svg>